<svg width="460" height="460" viewBox="0 0 460 460" fill="none" xmlns="http://www.w3.org/2000/svg">
<rect width="460" height="460" rx="108" fill="#EBEBEB"/>
<path d="M103 191.066L97.3738 177.161C92.0997 179.295 88.4869 184.23 88.0453 189.902C87.6036 195.574 90.409 201.008 95.2892 203.933L103 191.066ZM184.878 174.118L198.783 168.492L187.531 140.682L173.626 146.308L179.252 160.213L184.878 174.118ZM229.499 266.877L221.788 279.744L229.472 284.349L237.17 279.767L229.499 266.877ZM356.879 191.066L364.551 203.956C369.442 201.045 372.265 195.616 371.837 189.94C371.41 184.264 367.806 179.319 362.534 177.173L356.879 191.066ZM286.723 146.319L272.829 140.665L261.52 168.452L275.414 174.106L281.068 160.213L286.723 146.319ZM103 191.066L108.626 204.971L184.878 174.118L179.252 160.213L173.626 146.308L97.3738 177.161L103 191.066ZM103 191.066L95.2892 203.933L221.788 279.744L229.499 266.877L237.21 254.011L110.711 178.2L103 191.066ZM229.499 266.877L237.17 279.767L364.551 203.956L356.879 191.066L349.208 178.176L221.827 253.988L229.499 266.877ZM356.879 191.066L362.534 177.173L286.723 146.319L281.068 160.213L275.414 174.106L351.225 204.96L356.879 191.066Z" fill="black"/>
<path d="M106.085 203.408L126.361 314.039L228.618 374.424L333.519 314.039L354.235 203.408" stroke="black" stroke-width="30" stroke-linecap="square" stroke-linejoin="round"/>
<path d="M228.618 96.7432C259.046 96.7433 283.712 115.621 283.712 138.907C283.712 162.194 241.841 189.303 228.618 189.304C215.395 189.304 173.522 162.194 173.522 138.907C173.522 115.621 198.189 96.7432 228.618 96.7432ZM219.191 132.885C211.652 123.285 199.754 120.046 192.617 125.651C185.479 131.256 185.804 143.582 193.342 153.183C200.881 162.783 219.48 166.246 222.582 163.811C225.683 161.375 226.73 142.485 219.191 132.885ZM264.869 125.404C257.731 119.799 245.833 123.038 238.294 132.638C230.756 142.238 231.802 161.128 234.904 163.563C238.006 165.999 256.603 162.535 264.142 152.936C271.681 143.335 272.006 131.009 264.869 125.404Z" fill="black"/>
<path d="M133.116 103.404C131.435 105.466 130.705 108.052 131.186 110.663C131.661 113.27 133.308 115.687 135.665 117.314C138.022 118.941 140.867 119.624 143.473 119.144C146.084 118.668 148.244 117.068 149.576 114.765C149.576 114.765 149.576 114.765 149.576 114.765C149.882 114.148 150.634 112.99 151.272 112.044C162.731 93.9199 184.102 82.2806 199.699 102.141C200.512 103.03 201.33 103.987 202.151 105.016C202.727 105.736 203.602 106.208 204.548 106.353C205.495 106.497 206.437 106.301 207.2 105.784C207.962 105.268 208.494 104.467 208.713 103.534C208.931 102.602 208.817 101.614 208.362 100.812C208.362 100.812 208.362 100.812 208.362 100.812C207.635 99.5509 206.897 98.3475 206.148 97.1992C199.899 86.8303 186.31 76.0221 170.905 78.9037C156.171 81.4677 145.358 90.3994 136.233 99.8286C135.169 100.981 134.252 101.975 133.116 103.404Z" fill="black"/>
<path d="M324.118 103.687C325.799 105.749 326.53 108.336 326.049 110.946C325.574 113.553 323.926 115.97 321.569 117.597C319.212 119.224 316.368 119.908 313.762 119.427C311.15 118.951 308.991 117.351 307.659 115.048C307.659 115.048 307.659 115.048 307.659 115.048C307.352 114.432 306.601 113.274 305.963 112.327C294.504 94.2031 273.133 82.5638 257.536 102.425C256.723 103.313 255.905 104.271 255.084 105.299C254.508 106.019 253.633 106.492 252.687 106.636C251.74 106.78 250.798 106.584 250.035 106.068C249.272 105.551 248.74 104.75 248.521 103.817C248.304 102.885 248.418 101.898 248.872 101.095C248.872 101.095 248.872 101.095 248.872 101.095C249.6 99.8341 250.338 98.6307 251.087 97.4824C257.336 87.1135 270.925 76.3053 286.33 79.1869C301.064 81.7509 311.877 90.6826 321.002 100.112C322.066 101.264 322.983 102.258 324.118 103.687Z" fill="black"/>
<path d="M267.845 185.748C267.845 203.754 251.259 225.445 228.249 225.445C205.238 225.445 190.271 203.754 190.271 185.748C190.271 167.741 205.238 195.065 228.249 195.065C251.259 195.065 267.845 167.741 267.845 185.748Z" fill="black"/>
<path d="M277.542 219.018C277.542 241.526 256.81 268.64 228.046 268.64C199.283 268.64 180.574 241.526 180.574 219.018C180.574 196.509 199.283 230.664 228.046 230.664C256.81 230.664 277.542 196.509 277.542 219.018Z" fill="black"/>
<path d="M229.939 258.944V370.457" stroke="black" stroke-width="30" stroke-linecap="round"/>
</svg>
